HIERARCHY
ROOT mixamorig:Hips
{
	OFFSET 0.000000 201.639420 0.000000
	CHANNELS 6 Xposition Yposition Zposition Xrotation Yrotation Zrotation
	JOINT mixamorig:Spine
	{
		OFFSET 0.006200 19.524994 -2.481800
		CHANNELS 3 Xrotation Yrotation Zrotation
		JOINT mixamorig:Spine1
		{
			OFFSET -0.000900 22.835007 -2.825400
			CHANNELS 3 Xrotation Yrotation Zrotation
			JOINT mixamorig:Spine2
			{
				OFFSET -0.020600 26.552490 -3.193300
				CHANNELS 3 Xrotation Yrotation Zrotation
				JOINT mixamorig:Neck
				{
					OFFSET -0.060000 30.701813 1.352200
					CHANNELS 3 Xrotation Yrotation Zrotation
					JOINT mixamorig:Head
					{
						OFFSET -0.087200 22.547607 3.670900
						CHANNELS 3 Xrotation Yrotation Zrotation
						JOINT mixamorig:HeadTop_End
						{
							OFFSET -0.830600 40.355194 7.893500
							CHANNELS 3 Xrotation Yrotation Zrotation
							End Site
							{
								OFFSET 0.000000 30.592346 0.000000
							}
						}
						JOINT mixamorig:RightEye
						{
							OFFSET -6.302100 18.118591 16.197100
							CHANNELS 3 Xrotation Yrotation Zrotation
							End Site
							{
								OFFSET 0.000000 30.592346 0.000000
							}
						}
						JOINT mixamorig:LeftEye
						{
							OFFSET 6.741500 18.382690 16.401899
							CHANNELS 3 Xrotation Yrotation Zrotation
							End Site
							{
								OFFSET 0.000000 30.592346 0.000000
							}
						}
					}
				}
				JOINT mixamorig:LeftShoulder
				{
					OFFSET 11.924900 18.230499 1.425400
					CHANNELS 3 Xrotation Yrotation Zrotation
					JOINT mixamorig:LeftArm
					{
						OFFSET 25.435989 -0.697632 -5.229300
						CHANNELS 3 Xrotation Yrotation Zrotation
						JOINT mixamorig:LeftForeArm
						{
							OFFSET 54.684776 0.000000 0.000000
							CHANNELS 3 Xrotation Yrotation Zrotation
							JOINT mixamorig:LeftHand
							{
								OFFSET 55.098175 0.000000 0.000000
								CHANNELS 3 Xrotation Yrotation Zrotation
								JOINT mixamorig:LeftHandMiddle1
								{
									OFFSET 23.369751 0.000000 0.000000
									CHANNELS 3 Xrotation Yrotation Zrotation
									JOINT mixamorig:LeftHandMiddle2
									{
										OFFSET 6.378677 0.000000 0.000000
										CHANNELS 3 Xrotation Yrotation Zrotation
										JOINT mixamorig:LeftHandMiddle3
										{
											OFFSET 6.148331 0.000000 0.000000
											CHANNELS 3 Xrotation Yrotation Zrotation
											JOINT mixamorig:LeftHandMiddle4
											{
												OFFSET 6.582504 0.000000 0.000000
												CHANNELS 3 Xrotation Yrotation Zrotation
												End Site
												{
													OFFSET -1.168900 6.395691 1.028606
												}
											}
										}
									}
								}
								JOINT mixamorig:LeftHandThumb1
								{
									OFFSET 7.235672 -3.848206 5.434273
									CHANNELS 3 Xrotation Yrotation Zrotation
									JOINT mixamorig:LeftHandThumb2
									{
										OFFSET 6.568451 -3.792297 3.792300
										CHANNELS 3 Xrotation Yrotation Zrotation
										JOINT mixamorig:LeftHandThumb3
										{
											OFFSET 6.063080 -3.500519 3.500518
											CHANNELS 3 Xrotation Yrotation Zrotation
											JOINT mixamorig:LeftHandThumb4
											{
												OFFSET 4.793182 -2.767334 2.767349
												CHANNELS 3 Xrotation Yrotation Zrotation
												End Site
												{
													OFFSET 0.101639 6.054260 1.275483
												}
											}
										}
									}
								}
								JOINT mixamorig:LeftHandIndex1
								{
									OFFSET 23.101074 -0.309540 4.992809
									CHANNELS 3 Xrotation Yrotation Zrotation
									JOINT mixamorig:LeftHandIndex2
									{
										OFFSET 6.226883 0.000000 0.000000
										CHANNELS 3 Xrotation Yrotation Zrotation
										JOINT mixamorig:LeftHandIndex3
										{
											OFFSET 6.094330 0.000000 0.000000
											CHANNELS 3 Xrotation Yrotation Zrotation
											JOINT mixamorig:LeftHandIndex4
											{
												OFFSET 5.482605 0.000000 0.000000
												CHANNELS 3 Xrotation Yrotation Zrotation
												End Site
												{
													OFFSET -1.427902 5.233032 0.797164
												}
											}
										}
									}
								}
								JOINT mixamorig:LeftHandRing1
								{
									OFFSET 22.299240 0.021149 -3.964172
									CHANNELS 3 Xrotation Yrotation Zrotation
									JOINT mixamorig:LeftHandRing2
									{
										OFFSET 6.321869 0.000000 0.000000
										CHANNELS 3 Xrotation Yrotation Zrotation
										JOINT mixamorig:LeftHandRing3
										{
											OFFSET 5.899796 0.000000 0.000000
											CHANNELS 3 Xrotation Yrotation Zrotation
											JOINT mixamorig:LeftHandRing4
											{
												OFFSET 6.517899 0.000000 0.000000
												CHANNELS 3 Xrotation Yrotation Zrotation
												End Site
												{
													OFFSET -1.637299 6.232208 0.980890
												}
											}
										}
									}
								}
								JOINT mixamorig:LeftHandPinky1
								{
									OFFSET 20.463791 -0.302338 -8.562233
									CHANNELS 3 Xrotation Yrotation Zrotation
									JOINT mixamorig:LeftHandPinky2
									{
										OFFSET 6.908646 0.000000 0.000000
										CHANNELS 3 Xrotation Yrotation Zrotation
										JOINT mixamorig:LeftHandPinky3
										{
											OFFSET 4.622849 0.000000 0.000000
											CHANNELS 3 Xrotation Yrotation Zrotation
											JOINT mixamorig:LeftHandPinky4
											{
												OFFSET 5.216080 0.000000 0.000000
												CHANNELS 3 Xrotation Yrotation Zrotation
												End Site
												{
													OFFSET -0.606308 5.116241 0.814926
												}
											}
										}
									}
								}
							}
						}
					}
				}
				JOINT mixamorig:RightShoulder
				{
					OFFSET -12.001300 18.284088 1.348900
					CHANNELS 3 Xrotation Yrotation Zrotation
					JOINT mixamorig:RightArm
					{
						OFFSET -25.308500 -0.751312 -5.164599
						CHANNELS 3 Xrotation Yrotation Zrotation
						JOINT mixamorig:RightForeArm
						{
							OFFSET -54.684429 0.000000 0.000000
							CHANNELS 3 Xrotation Yrotation Zrotation
							JOINT mixamorig:RightHand
							{
								OFFSET -55.150291 0.000000 0.000000
								CHANNELS 3 Xrotation Yrotation Zrotation
								JOINT mixamorig:RightHandMiddle1
								{
									OFFSET -23.317566 0.000000 0.000000
									CHANNELS 3 Xrotation Yrotation Zrotation
									JOINT mixamorig:RightHandMiddle2
									{
										OFFSET -6.378403 0.000000 0.000000
										CHANNELS 3 Xrotation Yrotation Zrotation
										JOINT mixamorig:RightHandMiddle3
										{
											OFFSET -6.148193 0.000000 0.000000
											CHANNELS 3 Xrotation Yrotation Zrotation
											JOINT mixamorig:RightHandMiddle4
											{
												OFFSET -6.583389 0.000000 0.000000
												CHANNELS 3 Xrotation Yrotation Zrotation
												End Site
												{
													OFFSET 1.171692 6.395905 1.029786
												}
											}
										}
									}
								}
								JOINT mixamorig:RightHandThumb1
								{
									OFFSET -7.190521 -3.860474 5.435846
									CHANNELS 3 Xrotation Yrotation Zrotation
									JOINT mixamorig:RightHandThumb2
									{
										OFFSET -6.567429 -3.791718 3.791708
										CHANNELS 3 Xrotation Yrotation Zrotation
										JOINT mixamorig:RightHandThumb3
										{
											OFFSET -6.062469 -3.500153 3.500166
											CHANNELS 3 Xrotation Yrotation Zrotation
											JOINT mixamorig:RightHandThumb4
											{
												OFFSET -4.792618 -2.767029 2.767022
												CHANNELS 3 Xrotation Yrotation Zrotation
												End Site
												{
													OFFSET -0.100327 6.053253 1.276754
												}
											}
										}
									}
								}
								JOINT mixamorig:RightHandIndex1
								{
									OFFSET -23.048981 -0.310791 4.992554
									CHANNELS 3 Xrotation Yrotation Zrotation
									JOINT mixamorig:RightHandIndex2
									{
										OFFSET -6.227539 0.000000 0.000000
										CHANNELS 3 Xrotation Yrotation Zrotation
										JOINT mixamorig:RightHandIndex3
										{
											OFFSET -6.095047 0.000000 0.000000
											CHANNELS 3 Xrotation Yrotation Zrotation
											JOINT mixamorig:RightHandIndex4
											{
												OFFSET -5.484772 0.000000 0.000000
												CHANNELS 3 Xrotation Yrotation Zrotation
												End Site
												{
													OFFSET 1.420593 5.237305 0.797056
												}
											}
										}
									}
								}
								JOINT mixamorig:RightHandRing1
								{
									OFFSET -22.246323 0.020569 -3.963762
									CHANNELS 3 Xrotation Yrotation Zrotation
									JOINT mixamorig:RightHandRing2
									{
										OFFSET -6.322128 0.000000 0.000000
										CHANNELS 3 Xrotation Yrotation Zrotation
										JOINT mixamorig:RightHandRing3
										{
											OFFSET -5.900024 0.000000 0.000000
											CHANNELS 3 Xrotation Yrotation Zrotation
											JOINT mixamorig:RightHandRing4
											{
												OFFSET -6.518356 0.000000 0.000000
												CHANNELS 3 Xrotation Yrotation Zrotation
												End Site
												{
													OFFSET 1.636398 6.232697 0.982186
												}
											}
										}
									}
								}
								JOINT mixamorig:RightHandPinky1
								{
									OFFSET -20.411011 -0.303314 -8.561701
									CHANNELS 3 Xrotation Yrotation Zrotation
									JOINT mixamorig:RightHandPinky2
									{
										OFFSET -6.907349 0.000000 0.000000
										CHANNELS 3 Xrotation Yrotation Zrotation
										JOINT mixamorig:RightHandPinky3
										{
											OFFSET -4.623840 0.000000 0.000000
											CHANNELS 3 Xrotation Yrotation Zrotation
											JOINT mixamorig:RightHandPinky4
											{
												OFFSET -5.218353 0.000000 0.000000
												CHANNELS 3 Xrotation Yrotation Zrotation
												End Site
												{
													OFFSET 0.602097 5.118835 0.816273
												}
											}
										}
									}
								}
							}
						}
					}
				}
			}
		}
	}
	JOINT mixamorig:LeftUpLeg
	{
		OFFSET 18.168400 -13.561905 -0.039000
		CHANNELS 3 Xrotation Yrotation Zrotation
		JOINT mixamorig:LeftLeg
		{
			OFFSET 0.577358 -80.825211 -3.695000
			CHANNELS 3 Xrotation Yrotation Zrotation
			JOINT mixamorig:LeftFoot
			{
				OFFSET -0.577356 -83.370262 -6.520700
				CHANNELS 3 Xrotation Yrotation Zrotation
				JOINT mixamorig:LeftToeBase
				{
					OFFSET 0.750401 -20.798306 25.135401
					CHANNELS 3 Xrotation Yrotation Zrotation
					JOINT mixamorig:LeftToe_End
					{
						OFFSET -0.000500 0.001200 19.917799
						CHANNELS 3 Xrotation Yrotation Zrotation
						End Site
						{
							OFFSET 0.000000 19.917805 0.000000
						}
					}
				}
			}
		}
	}
	JOINT mixamorig:RightUpLeg
	{
		OFFSET -18.162500 -13.585098 -0.041000
		CHANNELS 3 Xrotation Yrotation Zrotation
		JOINT mixamorig:RightLeg
		{
			OFFSET -0.595024 -80.945297 -3.631900
			CHANNELS 3 Xrotation Yrotation Zrotation
			JOINT mixamorig:RightFoot
			{
				OFFSET 0.595024 -83.218193 -6.561200
				CHANNELS 3 Xrotation Yrotation Zrotation
				JOINT mixamorig:RightToeBase
				{
					OFFSET -0.753601 -20.807106 25.115000
					CHANNELS 3 Xrotation Yrotation Zrotation
					JOINT mixamorig:RightToe_End
					{
						OFFSET 0.000299 0.001700 19.918200
						CHANNELS 3 Xrotation Yrotation Zrotation
						End Site
						{
							OFFSET 0.000000 19.918203 0.000000
						}
					}
				}
			}
		}
	}
}
MOTION
Frames: 4
Frame Time: 0.033333
1.501028 188.160416 -160.653534 -16.948445 -39.013982 -8.561766 11.198259 1.162636 -2.502365 14.986352 -0.142160 -1.161271 14.991674 -0.192042 -1.132997 0.249109 7.117145 0.752941 -6.899429 22.329350 12.040233 0.000000 0.000001 -0.000000 0.000000 0.000001 -0.000000 0.000000 0.000001 -0.000000 -37.592531 -5.523909 2.364709 -44.188995 -9.309128 -60.989081 0.000034 -61.404063 0.000028 -119.127474 2.933976 32.878502 0.443063 5.611559 -53.874425 3.408489 5.318450 -65.288125 0.289322 1.819956 -18.063463 -0.000000 0.000001 0.000001 5.118798 10.519642 3.686732 19.475560 -1.502261 7.634775 -4.451141 -9.222033 1.436745 0.000004 0.000002 0.000000 0.099673 4.435910 -38.245576 2.951615 5.084313 -60.251530 0.517673 2.409691 -24.245587 -0.000000 0.000000 -0.000000 0.434507 6.096669 -62.366532 4.086712 5.579596 -72.421124 0.596413 2.577266 -26.055575 -0.000001 -0.000001 -0.000002 -6.420289 4.845630 -73.659977 3.313834 5.274061 -64.262654 0.179250 1.439540 -14.195123 0.000002 0.000001 -0.000001 -41.048641 -8.152561 -9.102614 -47.975396 57.997418 101.046590 0.000384 97.484783 -0.000334 -54.307736 -14.747282 -31.446273 3.569644 -7.272740 52.410473 6.328914 -4.347412 111.057380 0.248720 -1.503057 18.790264 0.000001 -0.000000 0.000001 8.376148 -4.896484 10.847490 21.787993 -18.467959 -18.300753 -0.545764 -50.450055 -32.578045 0.000000 0.000001 -0.000003 -0.943572 1.501165 13.146000 0.747331 -2.532264 32.880671 0.615533 -2.315856 29.764981 -0.000001 0.000000 -0.000003 -3.240406 -2.724511 57.402440 5.461476 -4.587342 99.955666 1.705860 -3.604209 50.644616 0.000000 -0.000000 -0.000001 -4.010847 -3.368333 65.086888 4.030967 -4.614993 82.264444 2.291377 -4.012674 59.442610 0.000001 0.000000 -0.000001 -24.951183 38.421552 29.350006 41.670561 0.382464 -5.146530 -11.066123 2.199113 0.463158 -0.001835 -0.000001 0.000004 -0.000000 0.000001 0.000000 -0.757707 1.975795 -12.564959 40.637798 6.829401 -0.296205 -21.226476 -21.163522 8.145408 -0.718122 -0.011227 1.038340 -0.000000 0.000000 0.000000 
0.479876 188.691193 -164.047653 -16.510138 -39.350137 -8.251403 10.871877 1.257638 -2.616208 14.902942 -0.132800 -1.119178 14.907550 -0.181557 -1.088981 0.336015 7.081387 0.786968 -6.452011 22.108101 12.187457 -0.000001 0.000001 -0.000000 -0.000001 0.000001 -0.000000 -0.000001 0.000001 -0.000000 -37.594225 -5.442225 2.149073 -43.734651 -8.919193 -60.902741 0.000053 -62.023302 0.000069 -119.001662 2.958920 32.903972 0.439692 5.588438 -53.491682 3.402487 5.315692 -65.223259 0.287254 1.813647 -17.998590 -0.000001 -0.000000 0.000003 5.054401 10.357361 3.557083 19.495694 -1.423476 7.602450 -4.448465 -9.209469 1.435072 0.000004 -0.000000 -0.000002 0.038263 4.337138 -37.889470 2.950990 5.083984 -60.244714 0.517455 2.409218 -24.240437 -0.000006 0.000001 -0.000002 0.324869 6.020068 -62.061694 4.075000 5.575898 -72.300278 0.591163 2.566495 -25.938543 -0.000002 0.000002 0.000003 -6.428106 4.780887 -73.356252 3.309119 5.271787 -64.211257 0.177960 1.434462 -14.143925 0.000000 0.000001 -0.000002 -41.087587 -8.213303 -9.346085 -48.178505 58.377470 101.457508 0.000356 97.480180 -0.000398 -54.100474 -14.436163 -31.440491 3.526668 -7.242664 52.349172 6.321728 -4.350156 110.962871 0.248719 -1.503057 18.790267 0.000001 0.000000 -0.000001 8.367966 -4.896597 10.841718 21.753748 -18.408620 -18.316909 -0.567713 -50.366734 -32.574992 0.000003 -0.000001 -0.000001 -0.934721 1.553719 12.913565 0.747333 -2.532264 32.880674 0.617496 -2.319279 29.813492 -0.000001 -0.000000 -0.000001 -3.253910 -2.701396 57.295916 5.456451 -4.588209 99.892978 1.701896 -3.600981 50.581424 -0.000001 -0.000001 -0.000001 -3.990200 -3.359073 64.955618 4.036148 -4.615683 82.328648 2.295960 -4.015322 59.507818 -0.000002 -0.000000 -0.000000 -26.000426 38.803169 29.973097 39.911773 0.549620 -4.776309 -8.916488 2.064850 0.167082 -0.001842 0.000001 -0.000000 0.000000 0.000001 0.000000 -0.472233 2.649744 -11.144353 38.994974 5.789751 -0.543183 -23.585683 -20.939398 7.572010 0.447480 -0.000009 -0.000002 -0.000000 -0.000000 -0.000000 
-0.620766 189.316528 -167.238419 -16.265209 -39.351483 -7.797979 10.596884 1.023904 -2.967850 14.834225 -0.166330 -1.078029 14.837328 -0.212857 -1.048980 0.282211 7.006686 0.980164 -6.288970 21.980160 12.361738 -0.000000 0.000002 -0.000003 -0.000000 0.000002 -0.000003 -0.000000 0.000002 -0.000003 -37.599382 -5.440448 1.976696 -43.201493 -8.607310 -60.766636 0.000085 -62.460256 0.000090 -118.862709 2.913814 32.853814 0.389734 5.530373 -53.107166 3.393614 5.311603 -65.127418 0.284252 1.804386 -17.903570 0.000001 0.000003 0.000002 4.931972 10.075999 3.387150 19.509855 -1.378276 7.583694 -4.466020 -9.265660 1.443322 0.000001 0.000001 0.000000 -0.079058 4.158951 -37.462877 2.950736 5.083814 -60.241729 0.517519 2.409346 -24.241835 0.000001 0.000001 -0.000003 0.175102 5.918455 -61.725335 4.066591 5.573216 -72.213725 0.587540 2.559051 -25.857530 -0.000001 0.000003 0.000001 -6.489630 4.697031 -73.040923 3.305803 5.270191 -64.175105 0.177039 1.430802 -14.107271 -0.000002 -0.000002 0.000004 -41.111537 -8.309216 -9.514215 -48.236128 58.713180 101.785856 -0.000588 97.308346 0.000607 -53.947853 -14.077127 -31.173899 3.491969 -7.224006 52.174405 6.316433 -4.352171 110.892943 0.248718 -1.503057 18.790264 0.000001 0.000000 -0.000001 8.353615 -4.872899 10.836053 21.715413 -18.337905 -18.332130 -0.572124 -50.329284 -32.577431 0.000000 0.000000 -0.000002 -0.925269 1.626280 12.629678 0.747332 -2.532263 32.880674 0.615196 -2.315322 29.757232 0.000001 0.000001 -0.000001 -3.291375 -2.650132 57.097847 5.451879 -4.588998 99.835830 1.698171 -3.597930 50.522404 -0.000002 0.000001 0.000000 -3.986331 -3.330334 64.743302 4.044985 -4.616845 82.438341 2.303638 -4.019843 59.617525 -0.000001 0.000000 -0.000002 -26.345716 39.506330 30.218775 37.619996 0.753988 -4.554625 -6.591813 1.422815 0.001730 -0.001836 -0.000003 0.000000 -0.000000 0.000001 0.000000 -1.203351 2.877632 -10.532068 39.153844 5.833009 -0.196518 -23.606035 -20.454613 6.355147 0.578767 0.000001 -0.000001 -0.000000 -0.000001 -0.000000 
-1.508881 190.032608 -169.852356 -16.294822 -38.951917 -7.819832 10.599697 0.711382 -2.808280 14.764096 -0.219034 -1.037864 14.766852 -0.265688 -1.011393 0.153439 6.895412 1.115615 -6.281428 21.566450 12.254510 -0.000001 0.000001 -0.000001 -0.000001 0.000001 -0.000001 -0.000001 0.000001 -0.000001 -37.607226 -5.455257 1.745778 -42.943469 -8.584189 -60.863624 0.000055 -62.646563 0.000058 -118.742087 2.750475 32.832398 0.358076 5.496866 -52.931435 3.387135 5.308618 -65.057518 0.282071 1.797634 -17.834274 -0.000000 0.000001 -0.000000 4.858868 9.905161 3.275760 19.509546 -1.365736 7.579839 -4.476086 -9.310700 1.450116 -0.000001 0.000001 -0.000001 -0.104124 4.119376 -37.358433 2.951612 5.084302 -60.251646 0.517951 2.410337 -24.252487 -0.000001 0.000001 -0.000002 0.086775 5.860252 -61.566997 4.063095 5.572094 -72.177826 0.586108 2.556061 -25.825048 -0.000000 -0.000000 0.000001 -6.534533 4.645984 -72.862129 3.304795 5.269707 -64.164177 0.176624 1.429118 -14.090194 -0.000002 0.000001 -0.000003 -41.183432 -8.378397 -9.930958 -47.870231 58.592163 101.779080 0.000595 97.395813 -0.000620 -53.827232 -14.069869 -30.892802 3.428595 -7.185597 51.936618 6.311934 -4.353899 110.833821 0.248720 -1.503058 18.790267 0.000001 -0.000000 0.000001 8.442065 -4.959855 11.110267 21.674808 -18.260760 -18.346925 -0.575760 -50.302069 -32.580231 0.000001 -0.000000 0.000001 -0.914374 1.691339 12.354094 0.747333 -2.532263 32.880674 0.613840 -2.312918 29.723211 0.000003 -0.000001 -0.000002 -3.328895 -2.599867 56.910229 5.448032 -4.589658 99.787466 1.695028 -3.595324 50.472100 0.000000 -0.000000 0.000001 -4.022445 -3.267402 64.427877 4.046490 -4.617056 82.457076 2.304806 -4.020508 59.634067 0.000001 -0.000001 0.000000 -26.334600 39.889121 30.223857 35.311815 0.945264 -3.976423 -4.459817 0.945024 -0.259368 -0.001844 0.000007 -0.000002 -0.000000 -0.000000 0.000000 -1.177286 2.790644 -9.848412 38.546859 5.421654 0.343379 -23.229588 -19.869932 5.431170 0.394652 -0.000005 -0.000002 0.000000 0.000001 -0.000000 
